<svg fill="#00c46b" stroke="none" stroke-width="0" xmlns="http://www.w3.org/2000/svg" viewBox="0 0 118 16" id="logo" class="cx_logo">
    <path d="M46 8.28516C46.01 8.11586 46.01 7.94612 46 7.77682C46.0114 5.33111 44.1594 3.27577 41.7186 3.02528C39.2778 2.77479 37.0445 4.41087 36.5557 6.80758C36.0668 9.20429 37.4819 11.5797 39.8271 12.299C42.1723 13.0183 44.6824 11.8469 45.63 9.5909H43.11C42.6357 10.0646 41.9914 10.3301 41.32 10.3285C40.1199 10.3332 39.0788 9.5031 38.82 8.33499H46V8.28516ZM41.32 5.22513C42.3071 5.22576 43.2059 5.79197 43.63 6.68039H39C39.4257 5.78872 40.3293 5.2219 41.32 5.22513ZM55.92 7.79675L55.92 12.5114H53.73V7.79675C53.7327 7.12 53.4655 6.46992 52.9873 5.98952C52.509 5.50911 51.859 5.23774 51.18 5.2351C50.7127 5.23552 50.2467 5.28564 49.79 5.38461V12.5114H47.6V3.48082C48.7607 3.13784 49.9705 2.98963 51.18 3.04225C53.805 3.05324 55.9255 5.18029 55.92 7.79675ZM33.88 3.04225H35V5.25504H33.88C33.1966 5.25767 32.5425 5.53146 32.0621 6.01589C31.5817 6.50032 31.3147 7.1555 31.32 7.83662V12.4715H29.13V7.83662C29.1193 6.5722 29.6145 5.35564 30.5058 4.45594C31.3972 3.55623 32.6114 3.04751 33.88 3.04225ZM26.57 3.04225H27.74V5.25504H26.57C25.8849 5.25502 25.2282 5.52764 24.7456 6.01236C24.2631 6.49708 23.9947 7.15378 24 7.83662V12.4715H21.83V7.83662C21.8194 6.57392 22.3131 5.35886 23.2023 4.45945C24.0915 3.56003 25.3032 3.05015 26.57 3.04225ZM17 3.04225H19.2V12.0728C18.0393 12.4158 16.8295 12.564 15.62 12.5114C14.3576 12.5061 13.1489 12.0012 12.26 11.1077C11.3711 10.2141 10.8747 9.00524 10.88 7.74691L10.88 3.04225H13.07V7.74691C13.0673 8.42366 13.3345 9.07375 13.8127 9.55415C14.2909 10.0346 14.941 10.3059 15.62 10.3086C16.0834 10.3059 16.5455 10.2592 17 10.169V3.04225ZM9.49 6.68039H7.15C6.71184 5.79058 5.80444 5.22627 4.81 5.22513C3.56666 5.23772 2.51218 6.13899 2.31005 7.36187C2.10792 8.58475 2.81659 9.77557 3.99016 10.1851C5.16373 10.5946 6.4628 10.1043 7.07 9.02275H9.45C8.78844 11.3063 6.55112 12.7644 4.18715 12.4527C1.82317 12.141 0.0431557 10.1532 0 7.77682C0.0449694 5.372 1.86715 3.3709 4.26418 3.09396C6.66121 2.81702 8.89433 4.34958 9.49 6.68039ZM97.32 3.04225C95.3979 3.03822 93.6628 4.1892 92.9245 5.95806C92.1861 7.72692 92.59 9.76497 93.9477 11.1211C95.3054 12.4773 97.3492 12.8842 99.1254 12.1519C100.902 11.4197 102.06 9.69268 102.06 7.77682C102.06 5.16588 99.9395 3.04775 97.32 3.04225ZM97.32 10.3285C96.2837 10.3325 95.3471 9.7134 94.9478 8.76023C94.5484 7.80706 94.7649 6.7079 95.4963 5.97606C96.2276 5.24421 97.3295 5.02407 98.2874 5.41843C99.2452 5.81279 99.87 6.74385 99.87 7.77682C99.87 9.18219 98.7299 10.323 97.32 10.3285ZM118 7.91636V12.631H115.81V7.91636C115.81 6.50549 114.665 5.3602 113.25 5.35471C112.58 5.35471 111.85 5.80325 111.85 6.27172V12.5114H109.66V7.79675C109.66 6.38587 108.515 5.24059 107.1 5.2351C106.633 5.23604 106.167 5.28616 105.71 5.38461V12.5114H103.52V3.48082C104.681 3.13784 105.891 2.98963 107.1 3.04225C108.322 3.123 109.477 3.63131 110.36 4.47757C111.085 3.64046 112.14 3.16005 113.25 3.16186C115.877 3.17284 118 5.29829 118 7.91636ZM79.87 7.84659C79.87 8.49066 79.3462 9.01279 78.7 9.01279C78.0538 9.01279 77.53 8.49066 77.53 7.84659C77.53 7.20251 78.0538 6.68039 78.7 6.68039C79.3462 6.68039 79.87 7.20251 79.87 7.84659ZM77.58 3.04225L72 16H69.5L71.21 12.013L67.55 3.04225H70.19L72.46 9.21214L75.08 3.04225H77.58ZM59.58 7.77682C59.5798 8.96055 60.3844 9.99395 61.5349 10.2877C62.6853 10.5814 63.8892 10.0608 64.46 9.02275H66.84C66.1921 11.3217 63.9486 12.7975 61.5732 12.4872C59.1977 12.1768 57.4115 10.1745 57.38 7.78678C57.425 5.38196 59.2472 3.38087 61.6442 3.10393C64.0412 2.82699 66.2743 4.35955 66.87 6.69036H64.53C63.9988 5.61992 62.8026 5.04985 61.6333 5.30991C60.4639 5.56997 59.6243 6.59283 59.6 7.78678L59.58 7.77682ZM84 7.77682C84.0146 8.94183 84.8104 9.95269 85.9421 10.244C87.0739 10.5354 88.2612 10.035 88.84 9.02275H91.22C90.5592 11.3048 88.3246 12.763 85.9619 12.454C83.5993 12.145 81.8178 10.1615 81.77 7.78678C81.815 5.38196 83.6371 3.38087 86.0342 3.10393C88.4312 2.82699 90.6643 4.35955 91.26 6.69036H88.92C88.4818 5.80054 87.5744 5.23624 86.58 5.2351C85.1667 5.23501 84.0164 6.36824 84 7.77682Z"></path>
</svg>